<svg width="496" height="484" viewBox="0 0 496 484" fill="none" xmlns="http://www.w3.org/2000/svg">
<path d="M244.8 0C106.1 0 0 105.3 0 244C0 354.9 69.8 449.8 169.5 483.2C182.3 485.5 186.8 477.6 186.8 471.1C186.8 464.9 186.5 430.7 186.5 409.7C186.5 409.7 116.5 424.7 101.8 379.9C101.8 379.9 90.4 350.8 74 343.3C74 343.3 51.1 327.6 75.6 327.9C75.6 327.9 100.5 329.9 114.2 353.7C136.1 392.3 172.8 381.2 187.1 374.6C189.4 358.6 195.9 347.5 203.1 340.9C147.2 334.7 90.8 326.6 90.8 230.4C90.8 202.9 98.4 189.1 114.4 171.5C111.8 165 103.3 138.2 117 103.6C137.9 97.1 186 130.6 186 130.6C206 125 227.5 122.1 248.8 122.1C270.1 122.1 291.6 125 311.6 130.6C311.6 130.6 359.7 97 380.6 103.6C394.3 138.3 385.8 165 383.2 171.5C399.2 189.2 409 203 409 230.4C409 326.9 350.1 334.6 294.2 340.9C303.4 348.8 311.2 363.8 311.2 387.3C311.2 421 310.9 462.7 310.9 470.9C310.9 477.4 315.5 485.3 328.2 483C428.2 449.8 496 354.9 496 244C496 105.3 383.5 0 244.8 0Z" fill="white"/>
</svg>
