<svg width="540" height="320" viewBox="0 0 540 320" fill="none" xmlns="http://www.w3.org/2000/svg">
<path d="M527 21.7C530.7 9.2 527 0 509.2 0H450.3C435.3 0 428.4 7.9 424.7 16.7C424.7 16.7 394.7 89.8 352.3 137.2C338.6 150.9 332.3 155.3 324.8 155.3C321.1 155.3 315.4 150.9 315.4 138.4V21.7C315.4 6.7 311.2 0 298.8 0H206.2C196.8 0 191.2 7 191.2 13.5C191.2 27.7 212.4 31 214.6 71V157.8C214.6 176.8 211.2 180.3 203.7 180.3C183.7 180.3 135.1 106.9 106.3 22.9C100.5 6.6 94.8001 0 79.7001 0H20.8001C4.0001 0 0.600098 7.9 0.600098 16.7C0.600098 32.3 20.6001 109.8 93.7001 212.2C142.4 282.1 211 320 273.4 320C310.9 320 315.5 311.6 315.5 297.1C315.5 230.3 312.1 224 330.9 224C339.6 224 354.6 228.4 389.6 262.1C429.6 302.1 436.2 320 458.6 320H517.5C534.3 320 542.8 311.6 537.9 295C526.7 260.1 451 188.3 447.6 183.5C438.9 172.3 441.4 167.3 447.6 157.3C447.7 157.2 519.6 56 527 21.7Z" fill="#1A1C1E"/>
</svg>
